<?xml version="1.0" encoding="UTF-8"?>
<svg xmlns="http://www.w3.org/2000/svg" xmlns:xlink="http://www.w3.org/1999/xlink" width="100px" height="51px" viewBox="0 0 99 51" version="1.1">
<g id="surface1">
<path style=" stroke:none;fill-rule:evenodd;fill:rgb(89.019608%,45.882353%,29.411765%);fill-opacity:1;" d="M 39.515625 9.683594 C 39.554688 10.386719 39.515625 11.070312 39.398438 11.726562 C 38.65625 11.667969 38.039062 11.90625 37.542969 12.449219 C 36.78125 13.460938 36.242188 14.585938 35.929688 15.816406 C 35.714844 15.816406 35.515625 15.875 35.332031 15.996094 C 34.988281 16.363281 34.628906 16.703125 34.253906 17.019531 C 34.292969 16.15625 34.253906 15.3125 34.136719 14.492188 C 35.359375 12.539062 36.636719 10.613281 37.960938 8.71875 C 38.480469 9.042969 39 9.367188 39.515625 9.683594 Z M 39.515625 9.683594 "/>
<path style=" stroke:none;fill-rule:evenodd;fill:rgb(89.803922%,49.803922%,29.803922%);fill-opacity:1;" d="M 39.515625 9.683594 C 40.648438 10.394531 41.804688 11.074219 42.984375 11.726562 C 43.984375 11.058594 45 10.417969 46.03125 9.804688 C 47.664062 10.945312 49.277344 12.105469 50.875 13.292969 C 50.875 14.734375 50.875 16.179688 50.875 17.621094 C 48.769531 16.441406 46.65625 15.257812 44.539062 14.074219 C 42.855469 13.183594 41.144531 12.402344 39.398438 11.726562 C 39.515625 11.070312 39.554688 10.386719 39.515625 9.683594 Z M 39.515625 9.683594 "/>
<path style=" stroke:none;fill-rule:evenodd;fill:rgb(91.764706%,60%,31.764706%);fill-opacity:1;" d="M 72.398438 17.019531 C 72.4375 18.324219 72.394531 19.609375 72.277344 20.867188 C 70.429688 19.230469 68.675781 17.484375 67.015625 15.636719 C 66.863281 15.578125 66.703125 15.558594 66.539062 15.578125 C 66.613281 14.328125 66.535156 13.125 66.300781 11.96875 C 66.894531 11.550781 67.511719 11.148438 68.152344 10.765625 C 69.597656 12.835938 71.015625 14.921875 72.398438 17.019531 Z M 72.398438 17.019531 "/>
<path style=" stroke:none;fill-rule:evenodd;fill:rgb(91.372549%,57.254902%,30.980392%);fill-opacity:1;" d="M 66.300781 11.96875 C 66.535156 13.125 66.613281 14.328125 66.539062 15.578125 C 65.898438 16.339844 65.480469 17.222656 65.28125 18.222656 C 64.699219 20.953125 64.101562 23.679688 63.488281 26.402344 C 63.40625 26.59375 63.304688 26.773438 63.191406 26.945312 C 62.542969 26.988281 61.902344 27.085938 61.277344 27.242188 C 61.355469 23.234375 61.277344 19.261719 61.039062 15.335938 C 62.757812 14.171875 64.511719 13.046875 66.300781 11.96875 Z M 66.300781 11.96875 "/>
<path style=" stroke:none;fill-rule:evenodd;fill:rgb(88.235294%,40.784314%,27.45098%);fill-opacity:1;" d="M 28.753906 12.929688 C 28.992188 17.78125 29.074219 22.671875 28.996094 27.605469 C 29.003906 27.726562 28.964844 27.824219 28.875 27.90625 C 27.242188 27.964844 25.605469 27.984375 23.972656 27.964844 C 24.011719 25.136719 23.972656 22.332031 23.851562 19.546875 C 25.457031 17.320312 27.09375 15.113281 28.753906 12.929688 Z M 28.753906 12.929688 "/>
<path style=" stroke:none;fill-rule:evenodd;fill:rgb(88.627451%,42.745098%,27.843137%);fill-opacity:1;" d="M 28.753906 12.929688 C 28.84375 12.800781 28.964844 12.78125 29.113281 12.871094 C 30.664062 13.503906 32.21875 14.125 33.777344 14.734375 C 33.925781 14.679688 34.042969 14.601562 34.136719 14.492188 C 34.253906 15.3125 34.292969 16.15625 34.253906 17.019531 C 33.949219 17.59375 33.609375 18.15625 33.238281 18.703125 C 31.785156 21.667969 30.371094 24.632812 28.996094 27.605469 C 29.074219 22.671875 28.992188 17.78125 28.753906 12.929688 Z M 28.753906 12.929688 "/>
<path style=" stroke:none;fill-rule:evenodd;fill:rgb(90.588235%,52.941176%,30.196078%);fill-opacity:1;" d="M 50.875 13.292969 C 52.628906 14.574219 54.382812 15.855469 56.136719 17.140625 C 56.175781 18.363281 56.136719 19.566406 56.015625 20.75 C 54.28125 19.734375 52.566406 18.695312 50.875 17.621094 C 50.875 16.179688 50.875 14.734375 50.875 13.292969 Z M 50.875 13.292969 "/>
<path style=" stroke:none;fill-rule:evenodd;fill:rgb(90.980392%,54.901961%,30.588235%);fill-opacity:1;" d="M 61.039062 15.335938 C 61.277344 19.261719 61.355469 23.234375 61.277344 27.242188 C 60.3125 27.539062 59.316406 27.761719 58.289062 27.90625 C 57.5 28.03125 57.082031 28.492188 57.03125 29.289062 C 56.992188 30.25 56.953125 31.214844 56.914062 32.175781 C 56.792969 32.59375 56.535156 32.875 56.136719 33.019531 C 56.175781 28.988281 56.136719 24.976562 56.015625 20.988281 C 56.015625 20.910156 56.015625 20.828125 56.015625 20.75 C 56.136719 19.566406 56.175781 18.363281 56.136719 17.140625 C 56.472656 17.492188 56.871094 17.671875 57.332031 17.679688 C 58.570312 16.898438 59.804688 16.117188 61.039062 15.335938 Z M 61.039062 15.335938 "/>
<path style=" stroke:none;fill-rule:evenodd;fill:rgb(92.54902%,62.745098%,32.941176%);fill-opacity:1;" d="M 72.398438 17.019531 C 74.066406 19.253906 75.679688 21.539062 77.238281 23.875 C 77.421875 23.667969 77.601562 23.464844 77.777344 23.273438 C 77.9375 23.996094 77.9375 24.71875 77.777344 25.441406 C 75.894531 23.972656 74.0625 22.449219 72.277344 20.867188 C 72.394531 19.609375 72.4375 18.324219 72.398438 17.019531 Z M 72.398438 17.019531 "/>
<path style=" stroke:none;fill-rule:evenodd;fill:rgb(92.941176%,65.098039%,32.941176%);fill-opacity:1;" d="M 83.15625 24.117188 C 83.195312 25.941406 83.15625 27.746094 83.039062 29.53125 C 81.238281 28.222656 79.484375 26.859375 77.777344 25.441406 C 77.9375 24.71875 77.9375 23.996094 77.777344 23.273438 C 78.5625 22.132812 79.382812 21.011719 80.226562 19.90625 C 81.265625 21.273438 82.242188 22.679688 83.15625 24.117188 Z M 83.15625 24.117188 "/>
<path style=" stroke:none;fill-rule:evenodd;fill:rgb(87.843137%,38.823529%,27.058824%);fill-opacity:1;" d="M 23.851562 19.546875 C 23.972656 22.332031 24.011719 25.136719 23.972656 27.964844 C 23.71875 28.230469 23.539062 28.550781 23.433594 28.929688 C 22.519531 31.25 21.980469 33.65625 21.820312 36.144531 C 21.582031 36.144531 21.34375 36.144531 21.101562 36.144531 C 21.261719 33.964844 21.339844 31.761719 21.34375 29.53125 C 21.34375 27.34375 21.300781 25.179688 21.222656 23.035156 C 22.101562 21.867188 22.980469 20.707031 23.851562 19.546875 Z M 23.851562 19.546875 "/>
<path style=" stroke:none;fill-rule:evenodd;fill:rgb(90.588235%,52.941176%,30.196078%);fill-opacity:1;" d="M 56.015625 20.988281 C 56.136719 24.976562 56.175781 28.988281 56.136719 33.019531 C 54.335938 33.394531 52.582031 33.914062 50.875 34.582031 C 50.914062 32.59375 50.875 30.632812 50.753906 28.6875 C 52.507812 26.121094 54.261719 23.554688 56.015625 20.988281 Z M 56.015625 20.988281 "/>
<path style=" stroke:none;fill-rule:evenodd;fill:rgb(87.45098%,37.647059%,26.666667%);fill-opacity:1;" d="M 21.222656 23.035156 C 21.300781 25.179688 21.34375 27.34375 21.34375 29.53125 C 21.339844 31.761719 21.261719 33.964844 21.101562 36.144531 C 19.945312 36.171875 18.789062 36.210938 17.636719 36.265625 C 17.675781 33.519531 17.636719 30.792969 17.515625 28.085938 C 18.75 26.402344 19.988281 24.71875 21.222656 23.035156 Z M 21.222656 23.035156 "/>
<path style=" stroke:none;fill-rule:evenodd;fill:rgb(93.333333%,67.45098%,34.117647%);fill-opacity:1;" d="M 83.15625 24.117188 C 86.082031 28.203125 88.992188 32.3125 91.886719 36.445312 C 91.804688 36.527344 91.726562 36.527344 91.648438 36.445312 C 90.804688 35.640625 89.929688 34.878906 89.015625 34.160156 C 87 32.632812 85.007812 31.089844 83.039062 29.53125 C 83.15625 27.746094 83.195312 25.941406 83.15625 24.117188 Z M 83.15625 24.117188 "/>
<path style=" stroke:none;fill-rule:evenodd;fill:rgb(87.058824%,35.294118%,26.27451%);fill-opacity:1;" d="M 17.515625 28.085938 C 17.636719 30.792969 17.675781 33.519531 17.636719 36.265625 C 15.886719 36.414062 14.132812 36.535156 12.375 36.625 C 12.414062 34.28125 12.375 31.953125 12.253906 29.648438 C 12.59375 29.289062 12.914062 28.90625 13.210938 28.507812 C 14.292969 28.5625 15.371094 28.703125 16.441406 28.929688 C 16.597656 28.886719 16.757812 28.847656 16.917969 28.808594 C 17.121094 28.558594 17.320312 28.316406 17.515625 28.085938 Z M 17.515625 28.085938 "/>
<path style=" stroke:none;fill-rule:evenodd;fill:rgb(90.196078%,50.980392%,30.196078%);fill-opacity:1;" d="M 50.753906 28.6875 C 50.875 30.632812 50.914062 32.59375 50.875 34.582031 C 48.929688 35.21875 47.058594 36.019531 45.253906 36.988281 C 45.214844 36.945312 45.175781 36.90625 45.136719 36.867188 C 47.011719 34.136719 48.886719 31.410156 50.753906 28.6875 Z M 50.753906 28.6875 "/>
<path style=" stroke:none;fill-rule:evenodd;fill:rgb(87.058824%,33.72549%,26.27451%);fill-opacity:1;" d="M 12.253906 29.648438 C 12.375 31.953125 12.414062 34.28125 12.375 36.625 C 10.507812 36.820312 8.632812 36.941406 6.753906 36.988281 C 6.449219 37.023438 6.171875 36.984375 5.917969 36.867188 C 8.035156 34.457031 10.148438 32.050781 12.253906 29.648438 Z M 12.253906 29.648438 "/>
<path style=" stroke:none;fill-rule:evenodd;fill:rgb(92.941176%,64.313725%,60.784314%);fill-opacity:1;" d="M 5.917969 36.867188 C 6.171875 36.984375 6.449219 37.023438 6.753906 36.988281 C 6.453125 37.144531 6.136719 37.144531 5.800781 36.988281 C 5.8125 36.914062 5.855469 36.875 5.917969 36.867188 Z M 5.917969 36.867188 "/>
</g>
</svg>
