<?xml version="1.0" encoding="UTF-8"?>
<!DOCTYPE svg PUBLIC "-//W3C//DTD SVG 1.1//EN" "http://www.w3.org/Graphics/SVG/1.1/DTD/svg11.dtd">
<svg xmlns="http://www.w3.org/2000/svg" version="1.1" width="828px" height="424px" style="shape-rendering:geometricPrecision; text-rendering:geometricPrecision; image-rendering:optimizeQuality; fill-rule:evenodd; clip-rule:evenodd" xmlns:xlink="http://www.w3.org/1999/xlink">
<g><path style="opacity:1" fill="#fefefe" d="M -0.5,-0.5 C 275.5,-0.5 551.5,-0.5 827.5,-0.5C 827.5,140.833 827.5,282.167 827.5,423.5C 551.5,423.5 275.5,423.5 -0.5,423.5C -0.5,282.167 -0.5,140.833 -0.5,-0.5 Z"/></g>
<g><path style="opacity:1" fill="#e3754b" d="M 330.5,80.5 C 330.822,86.358 330.489,92.0247 329.5,97.5C 323.306,97.0004 318.139,99.0004 314,103.5C 307.624,111.919 303.124,121.253 300.5,131.5C 298.692,131.491 297.025,131.991 295.5,133C 292.631,136.038 289.631,138.871 286.5,141.5C 286.825,134.313 286.491,127.313 285.5,120.5C 295.749,104.246 306.415,88.2458 317.5,72.5C 321.851,75.1935 326.184,77.8602 330.5,80.5 Z"/></g>
<g><path style="opacity:1" fill="#e57f4c" d="M 330.5,80.5 C 339.975,86.4073 349.641,92.074 359.5,97.5C 367.877,91.9533 376.377,86.62 385,81.5C 398.647,90.9831 412.147,100.65 425.5,110.5C 425.5,122.5 425.5,134.5 425.5,146.5C 407.888,136.691 390.221,126.858 372.5,117C 358.443,109.605 344.11,103.105 329.5,97.5C 330.489,92.0247 330.822,86.358 330.5,80.5 Z"/></g>
<g><path style="opacity:1" fill="#ea9951" d="M 605.5,141.5 C 605.828,152.346 605.494,163.013 604.5,173.5C 589.037,159.87 574.37,145.37 560.5,130C 559.207,129.51 557.873,129.343 556.5,129.5C 557.141,119.111 556.474,109.111 554.5,99.5C 559.492,96.0297 564.659,92.6964 570,89.5C 582.1,106.718 593.934,124.051 605.5,141.5 Z"/></g>
<g><path style="opacity:1" fill="#e9924f" d="M 554.5,99.5 C 556.474,109.111 557.141,119.111 556.5,129.5C 551.166,135.839 547.666,143.172 546,151.5C 541.127,174.2 536.127,196.867 531,219.5C 530.293,221.081 529.46,222.581 528.5,224C 523.076,224.361 517.743,225.195 512.5,226.5C 513.16,193.15 512.493,160.15 510.5,127.5C 524.876,117.806 539.543,108.473 554.5,99.5 Z"/></g>
<g><path style="opacity:1" fill="#e16846" d="M 240.5,107.5 C 242.494,147.82 243.161,188.486 242.5,229.5C 242.586,230.496 242.252,231.329 241.5,232C 227.837,232.5 214.171,232.667 200.5,232.5C 200.831,208.994 200.498,185.661 199.5,162.5C 212.923,143.988 226.59,125.655 240.5,107.5 Z"/></g>
<g><path style="opacity:1" fill="#e26d47" d="M 240.5,107.5 C 241.251,106.427 242.251,106.26 243.5,107C 256.466,112.266 269.466,117.433 282.5,122.5C 283.739,122.058 284.739,121.391 285.5,120.5C 286.491,127.313 286.825,134.313 286.5,141.5C 283.94,146.277 281.107,150.944 278,155.5C 265.847,180.136 254.013,204.803 242.5,229.5C 243.161,188.486 242.494,147.82 240.5,107.5 Z"/></g>
<g><path style="opacity:1" fill="#e7874d" d="M 425.5,110.5 C 440.167,121.167 454.833,131.833 469.5,142.5C 469.827,152.681 469.494,162.681 468.5,172.5C 453.992,164.081 439.659,155.415 425.5,146.5C 425.5,134.5 425.5,122.5 425.5,110.5 Z"/></g>
<g><path style="opacity:1" fill="#e88c4e" d="M 510.5,127.5 C 512.493,160.15 513.16,193.15 512.5,226.5C 504.438,228.962 496.105,230.795 487.5,232C 480.898,233.055 477.398,236.888 477,243.5C 476.667,251.5 476.333,259.5 476,267.5C 475.011,270.987 472.845,273.32 469.5,274.5C 469.832,240.996 469.498,207.662 468.5,174.5C 468.5,173.833 468.5,173.167 468.5,172.5C 469.494,162.681 469.827,152.681 469.5,142.5C 472.31,145.41 475.643,146.91 479.5,147C 489.861,140.489 500.195,133.989 510.5,127.5 Z"/></g>
<g><path style="opacity:1" fill="#eca054" d="M 605.5,141.5 C 619.469,160.082 632.969,179.082 646,198.5C 647.517,196.76 649.017,195.094 650.5,193.5C 651.833,199.5 651.833,205.5 650.5,211.5C 634.758,199.3 619.425,186.634 604.5,173.5C 605.494,163.013 605.828,152.346 605.5,141.5 Z"/></g>
<g><path style="opacity:1" fill="#eda654" d="M 695.5,200.5 C 695.829,215.676 695.496,230.676 694.5,245.5C 679.433,234.639 664.767,223.306 650.5,211.5C 651.833,205.5 651.833,199.5 650.5,193.5C 657.08,184.019 663.913,174.685 671,165.5C 679.679,176.875 687.845,188.542 695.5,200.5 Z"/></g>
<g><path style="opacity:1" fill="#e06345" d="M 199.5,162.5 C 200.498,185.661 200.831,208.994 200.5,232.5C 198.36,234.7 196.86,237.367 196,240.5C 188.339,259.807 183.839,279.807 182.5,300.5C 180.5,300.5 178.5,300.5 176.5,300.5C 177.82,282.385 178.487,264.051 178.5,245.5C 178.5,227.33 178.167,209.33 177.5,191.5C 184.865,181.809 192.198,172.143 199.5,162.5 Z"/></g>
<g><path style="opacity:1" fill="#e7874d" d="M 468.5,174.5 C 469.498,207.662 469.832,240.996 469.5,274.5C 454.451,277.628 439.785,281.962 425.5,287.5C 425.83,270.991 425.496,254.658 424.5,238.5C 439.167,217.167 453.833,195.833 468.5,174.5 Z"/></g>
<g><path style="opacity:1" fill="#df6044" d="M 177.5,191.5 C 178.167,209.33 178.5,227.33 178.5,245.5C 178.487,264.051 177.82,282.385 176.5,300.5C 166.828,300.709 157.161,301.042 147.5,301.5C 147.831,278.661 147.497,255.994 146.5,233.5C 156.833,219.5 167.167,205.5 177.5,191.5 Z"/></g>
<g><path style="opacity:1" fill="#eeac57" d="M 695.5,200.5 C 719.97,234.486 744.304,268.653 768.5,303C 767.833,303.667 767.167,303.667 766.5,303C 759.462,296.293 752.128,289.96 744.5,284C 727.648,271.303 710.981,258.47 694.5,245.5C 695.496,230.676 695.829,215.676 695.5,200.5 Z"/></g>
<g><path style="opacity:1" fill="#de5a43" d="M 146.5,233.5 C 147.497,255.994 147.831,278.661 147.5,301.5C 132.864,302.748 118.197,303.748 103.5,304.5C 103.83,284.993 103.497,265.659 102.5,246.5C 105.332,243.499 107.998,240.333 110.5,237C 119.554,237.46 128.554,238.626 137.5,240.5C 138.833,240.167 140.167,239.833 141.5,239.5C 143.185,237.429 144.852,235.429 146.5,233.5 Z"/></g>
<g><path style="opacity:1" fill="#e6824d" d="M 424.5,238.5 C 425.496,254.658 425.83,270.991 425.5,287.5C 409.246,292.794 393.579,299.461 378.5,307.5C 378.167,307.167 377.833,306.833 377.5,306.5C 393.192,283.815 408.859,261.149 424.5,238.5 Z"/></g>
<g><path style="opacity:1" fill="#de5643" d="M 102.5,246.5 C 103.497,265.659 103.83,284.993 103.5,304.5C 87.8773,306.122 72.2106,307.122 56.5,307.5C 53.9407,307.802 51.6074,307.468 49.5,306.5C 67.1955,286.475 84.8622,266.475 102.5,246.5 Z"/></g>
<g><path style="opacity:1" fill="#eda49b" d="M 49.5,306.5 C 51.6074,307.468 53.9407,307.802 56.5,307.5C 53.9759,308.8 51.3092,308.8 48.5,307.5C 48.6236,306.893 48.9569,306.56 49.5,306.5 Z"/></g>
</svg>
